<svg width="29" height="20" viewBox="0 0 29 20" fill="none" xmlns="http://www.w3.org/2000/svg">
<path d="M-7.05719e-05 18.5787C-7.05719e-05 19.3644 0.637074 20.0001 1.42136 20.0001H12.8642C13.2412 20.0001 13.6027 19.8503 13.8693 19.5838C14.1359 19.3172 14.2856 18.9556 14.2856 18.5787C14.2856 18.2017 14.1359 17.8401 13.8693 17.5736C13.6027 17.307 13.2412 17.1572 12.8642 17.1572H1.42136C0.635645 17.1572 -7.05719e-05 17.7929 -7.05719e-05 18.5787Z" fill="#F20040"/>
<path d="M-0.000141144 9.9998C-0.000141144 10.7855 0.637003 11.4212 1.42129 11.4212H27.1499C27.5268 11.4212 27.8884 11.2715 28.155 11.0049C28.4215 10.7383 28.5713 10.3768 28.5713 9.9998C28.5713 9.62281 28.4215 9.26127 28.155 8.9947C27.8884 8.72813 27.5268 8.57837 27.1499 8.57837H1.42129C0.635574 8.57837 -0.000141144 9.21551 -0.000141144 9.9998Z" fill="#F20040"/>
<path d="M1.42118 2.84286C1.0442 2.84286 0.682652 2.6931 0.416082 2.42653C0.149513 2.15996 -0.000244141 1.79841 -0.000244141 1.42143C-0.000244141 1.04444 0.149513 0.682896 0.416082 0.416327C0.682652 0.149757 1.0442 1.12351e-08 1.42118 0H18.5783C18.765 -5.56304e-09 18.9498 0.0367663 19.1223 0.1082C19.2947 0.179633 19.4514 0.284335 19.5834 0.416327C19.7154 0.548318 19.8201 0.705016 19.8916 0.877472C19.963 1.04993 19.9998 1.23476 19.9998 1.42143C19.9998 1.60809 19.963 1.79293 19.8916 1.96539C19.8201 2.13784 19.7154 2.29454 19.5834 2.42653C19.4514 2.55852 19.2947 2.66322 19.1223 2.73466C18.9498 2.80609 18.765 2.84286 18.5783 2.84286H1.42118Z" fill="#F20040"/>
</svg>
