<svg width="15" height="15" viewBox="0 0 15 15" fill="none" xmlns="http://www.w3.org/2000/svg">
<path d="M12.8784 0H2.12164C0.949434 0 0 0.949434 0 2.12164V12.8784C0 14.0506 0.949434 15 2.12164 15H12.8784C14.0506 15 15 14.0506 15 12.8784V2.12164C15 0.949434 14.0506 0 12.8784 0ZM11.7062 8.47065C11.7062 8.71994 11.5046 8.9215 11.2553 8.9215H8.9268V11.25C8.9268 11.4993 8.72525 11.7008 8.47595 11.7008H6.52935C6.28006 11.7008 6.0785 11.4993 6.0785 11.25V8.9215H3.7447C3.4954 8.9215 3.29385 8.71994 3.29385 8.47065V6.52404C3.29385 6.27475 3.4954 6.0732 3.7447 6.0732H6.0732V3.7447C6.0732 3.4954 6.27475 3.29385 6.52404 3.29385H8.47065C8.71994 3.29385 8.9215 3.4954 8.9215 3.7447V6.0732H11.25C11.4993 6.0732 11.7008 6.27475 11.7008 6.52404V8.47065H11.7062Z" fill="#F31454"/>
</svg>
