<svg width="29" height="29" viewBox="0 0 29 29" fill="none" xmlns="http://www.w3.org/2000/svg">
<g clip-path="url(#clip0)">
<path d="M24.28 0H4C1.79 0 0 1.79 0 4V24.28C0 26.49 1.79 28.28 4 28.28H24.28C26.49 28.28 28.28 26.49 28.28 24.28V4C28.28 1.79 26.49 0 24.28 0ZM22.07 15.97C22.07 16.44 21.69 16.82 21.22 16.82H16.83V21.21C16.83 21.68 16.45 22.06 15.98 22.06H12.31C11.84 22.06 11.46 21.68 11.46 21.21V16.82H7.06C6.59 16.82 6.21 16.44 6.21 15.97V12.3C6.21 11.83 6.59 11.45 7.06 11.45H11.45V7.06C11.45 6.59 11.83 6.21 12.3 6.21H15.97C16.44 6.21 16.82 6.59 16.82 7.06V11.45H21.21C21.68 11.45 22.06 11.83 22.06 12.3V15.97H22.07Z" fill="#A0A0A0"/>
</g>
<defs>
<clipPath id="clip0">
<rect width="28.28" height="28.28" fill="white"/>
</clipPath>
</defs>
</svg>
