<svg width="30" height="27" viewBox="0 0 30 27" fill="none" xmlns="http://www.w3.org/2000/svg">
<path d="M15 0.893555C11.2127 0.893555 7.58051 2.25496 4.90249 4.67828C2.22447 7.10159 0.719971 10.3883 0.719971 13.8154C0.719971 17.2425 2.22447 20.5292 4.90249 22.9525C7.58051 25.3758 11.2127 26.7372 15 26.7372C18.7873 26.7372 22.4194 25.3758 25.0975 22.9525C27.7755 20.5292 29.28 17.2425 29.28 13.8154C29.28 10.3883 27.7755 7.10159 25.0975 4.67828C22.4194 2.25496 18.7873 0.893555 15 0.893555ZM23.1413 18.5242L20.202 21.1839L15 16.4751L9.79627 21.1824L6.85697 18.5226L12.0624 13.8154L6.85867 9.10662L9.79797 6.44841L15 11.1557L20.2037 6.44687L23.143 9.10662L17.9376 13.8154L23.1413 18.5242Z" fill="#7487FC"/>
</svg>
