<svg width="23" height="28" viewBox="0 0 23 28" fill="none" xmlns="http://www.w3.org/2000/svg">
<path d="M19.4124 8.90308C19.5188 8.96529 19.6174 9.03964 19.7063 9.1246C21.0795 10.5096 22.0724 12.2194 22.5907 14.0915C23.109 15.9637 23.1355 17.936 22.6677 19.8212C22.1998 21.7063 21.2532 23.4417 19.9177 24.8623C18.5822 26.283 16.9022 27.3418 15.0373 27.9382C14.7373 28.0348 14.4117 28.0177 14.1237 27.8901C11.763 26.856 9.82199 25.0656 8.6126 22.8067C8.48715 23.9011 8.56949 25.0092 8.85538 26.0737C8.89666 26.2014 8.9182 26.3345 8.91927 26.4686C8.91922 26.6761 8.86769 26.8804 8.76922 27.0635C8.67074 27.2466 8.52833 27.403 8.35453 27.5187C8.18073 27.6345 7.98086 27.7062 7.77252 27.7275C7.56418 27.7488 7.35375 27.719 7.15976 27.6408C5.50745 26.9761 4.03421 25.9392 2.85688 24.6123C1.67955 23.2853 0.830529 21.7049 0.377144 19.9963C-0.0762402 18.2878 -0.121511 16.498 0.244924 14.7691C0.611358 13.0402 1.37942 11.4196 2.48818 10.036C3.20163 9.11991 4.05936 8.32366 5.02842 7.67778L5.32231 7.44108C6.24856 6.66432 7.00599 5.70938 7.54872 4.6341C8.09144 3.55882 8.40817 2.38559 8.47971 1.18548C8.49346 0.971271 8.56197 0.76404 8.67881 0.583272C8.79564 0.402503 8.95696 0.254136 9.1476 0.152116C9.33823 0.0500962 9.55193 -0.00222443 9.76859 7.24932e-05C9.98526 0.00236942 10.1978 0.0592085 10.3862 0.165246C12.0957 1.13021 13.5167 2.52671 14.5043 4.21256C15.4919 5.89841 16.0109 7.8134 16.0084 9.76256C16.0078 10.4034 15.9505 11.043 15.8372 11.6739C16.5764 11.0475 17.1835 10.2827 17.6235 9.42333C17.7023 9.26881 17.8122 9.13193 17.9465 9.02117C18.0808 8.9104 18.2366 8.82809 18.4042 8.77933C18.5719 8.73057 18.7479 8.7164 18.9213 8.73768C19.0947 8.75897 19.2619 8.81526 19.4124 8.90308Z" fill="#F31454"/>
</svg>
