<svg width="15" height="19" viewBox="0 0 15 19" fill="none" xmlns="http://www.w3.org/2000/svg">
<path d="M12.6603 5.80636C12.7297 5.84693 12.794 5.89541 12.852 5.95082C13.7475 6.85407 14.395 7.96915 14.7331 9.19012C15.0711 10.4111 15.0884 11.6974 14.7833 12.9268C14.4781 14.1563 13.8608 15.288 12.9898 16.2146C12.1188 17.1411 11.0232 17.8316 9.80694 18.2206C9.61125 18.2836 9.39894 18.2724 9.2111 18.1892C7.67155 17.5148 6.40565 16.3471 5.61691 14.8739C5.5351 15.5877 5.5888 16.3104 5.77525 17.0046C5.80217 17.0879 5.81622 17.1747 5.81691 17.2621C5.81688 17.3975 5.78328 17.5307 5.71905 17.6501C5.65483 17.7695 5.56196 17.8715 5.44861 17.947C5.33526 18.0225 5.20491 18.0693 5.06904 18.0831C4.93316 18.097 4.79592 18.0776 4.66941 18.0266C3.59182 17.5931 2.63101 16.9169 1.86318 16.0515C1.09536 15.1861 0.541649 14.1554 0.245964 13.0411C-0.0497219 11.9268 -0.079246 10.7596 0.159733 9.63204C0.398712 8.50448 0.899619 7.44759 1.62273 6.5452C2.08802 5.94777 2.64741 5.42847 3.2794 5.00725L3.47107 4.85288C4.07514 4.3463 4.56912 3.72351 4.92308 3.02224C5.27703 2.32097 5.48359 1.55582 5.53025 0.773141C5.53921 0.633437 5.58389 0.498287 5.66009 0.380395C5.73629 0.262502 5.84149 0.165741 5.96582 0.099206C6.09015 0.0326714 6.22952 -0.00145072 6.37082 4.72782e-05C6.51213 0.00154527 6.65072 0.0386142 6.77359 0.107769C7.88853 0.737092 8.81521 1.64785 9.4593 2.74732C10.1034 3.84679 10.4419 5.0957 10.4403 6.36689C10.4399 6.78483 10.4025 7.20194 10.3286 7.61343C10.8107 7.20491 11.2066 6.70611 11.4936 6.14565C11.545 6.04487 11.6167 5.95561 11.7042 5.88337C11.7918 5.81113 11.8934 5.75745 12.0028 5.72565C12.1121 5.69385 12.2269 5.68461 12.34 5.69849C12.4531 5.71237 12.5621 5.74908 12.6603 5.80636Z" fill="#F31454"/>
</svg>
