<svg width="29" height="28" viewBox="0 0 29 28" fill="none" xmlns="http://www.w3.org/2000/svg">
<path d="M28.3998 13.7706L15.2235 0.306641C15.1287 0.209437 15.016 0.132319 14.8919 0.0797013C14.7679 0.0270838 14.6349 0 14.5006 0C14.3663 0 14.2333 0.0270838 14.1093 0.0797013C13.9852 0.132319 13.8725 0.209437 13.7776 0.306641L0.601393 13.7706C0.217525 14.1631 0 14.6963 0 15.2524C0 16.4071 0.918083 17.3459 2.04729 17.3459H3.43562V26.9532C3.43562 27.5322 3.89306 28 4.45926 28H12.4533V20.6727H16.0361V28H24.5419C25.1081 28 25.5656 27.5322 25.5656 26.9532V17.3459H26.9539C27.4977 17.3459 28.0191 17.1268 28.403 16.731C29.1995 15.9132 29.1995 14.5884 28.3998 13.7706Z" fill="#F31454"/>
</svg>
