<svg width="15" height="15" viewBox="0 0 15 15" fill="none" xmlns="http://www.w3.org/2000/svg">
<path d="M14.6896 7.12272L7.87425 0.158608C7.82518 0.108329 7.76689 0.0684407 7.70273 0.0412248C7.63856 0.0140089 7.56978 0 7.50031 0C7.43084 0 7.36206 0.0140089 7.29789 0.0412248C7.23373 0.0684407 7.17544 0.108329 7.12637 0.158608L0.311065 7.12272C0.112513 7.32576 0 7.60155 0 7.88918C0 8.48644 0.474871 8.97204 1.05895 8.97204H1.77704V13.9413C1.77704 14.2408 2.01365 14.4828 2.30652 14.4828H6.44136V10.6928H8.29452V14.4828H12.6941C12.987 14.4828 13.2236 14.2408 13.2236 13.9413V8.97204H13.9417C14.223 8.97204 14.4927 8.85868 14.6912 8.65395C15.1032 8.23096 15.1032 7.54571 14.6896 7.12272Z" fill="#F31454"/>
</svg>
