<svg width="28" height="29" viewBox="0 0 28 29" fill="none" xmlns="http://www.w3.org/2000/svg">
<path d="M26.61 24.46L20.48 17.85C21.84 15.94 22.58 13.65 22.58 11.3C22.58 5.06 17.52 0 11.29 0C5.06 0 0 5.06 0 11.29C0 17.51 5.06 22.58 11.29 22.58C13.36 22.58 15.37 22.01 17.14 20.94L23.28 27.56C23.71 28.02 24.32 28.29 24.95 28.29C25.53 28.29 26.08 28.07 26.5 27.68C26.95 27.27 27.2 26.71 27.23 26.1C27.24 25.48 27.03 24.9 26.61 24.46ZM17.94 11.29C17.94 14.95 14.96 17.93 11.3 17.93C7.64 17.93 4.66 14.95 4.66 11.29C4.66 7.63 7.64 4.65 11.3 4.65C14.96 4.65 17.94 7.63 17.94 11.29Z" fill="#F31454"/>
</svg>
