<svg width="170" height="62" viewBox="0 0 170 62" fill="none" xmlns="http://www.w3.org/2000/svg">
<path d="M13.4288 18.4524C14.0191 18.4524 14.6094 19.0429 14.6094 19.6333V22.7333C14.6094 23.4714 14.0191 23.9143 13.4288 23.9143H1.18056C0.590278 23.9143 0 23.3238 0 22.7333V1.18095C0 0.590476 0.590278 0 1.18056 0H4.72222C5.3125 0 5.90278 0.590476 5.90278 1.18095V18.4524H13.4288Z" fill="black"/>
<path d="M21.5473 0H24.4987C25.089 0 25.5317 0.442857 25.5317 1.03333V15.9429C25.5317 16.5333 25.089 16.9762 24.4987 16.9762H21.5473C21.1046 16.9762 20.6619 16.681 20.6619 16.0905V14.1714C19.7765 15.3524 18.4484 16.0905 16.3824 16.0905C11.6602 16.0905 9.00391 12.1048 9.00391 8.11905C9.00391 4.13333 11.5126 0.147619 16.3824 0.147619C18.4484 0.147619 19.7765 0.885714 20.6619 2.06667V0.885714C20.8095 0.442857 21.1046 0 21.5473 0ZM20.6619 7.97143C20.6619 5.90476 19.1862 4.72381 17.4154 4.72381C15.3494 4.72381 14.1688 6.05238 14.1688 7.97143C14.1688 9.89048 15.3494 11.219 17.4154 11.219C19.1862 11.219 20.6619 10.0381 20.6619 7.97143Z" fill="black"/>
<path d="M34.6775 34.9858H48.6966C49.7296 34.9858 50.615 35.8715 50.615 36.9048V55.062C50.615 55.9477 49.8772 56.6858 48.9918 56.6858H47.5161C46.7782 56.6858 46.1879 56.0953 45.8928 55.5048L45.0074 52.1096C42.3511 55.5048 38.3668 57.4239 32.9067 57.4239C21.6914 57.4239 13.7227 49.0096 13.7227 37.9381C13.7227 26.7191 21.6914 18.3048 32.9067 18.3048C38.5143 18.3048 43.2365 20.3715 46.6306 23.9143C47.3685 24.8 47.3685 26.2762 46.3355 26.8667L41.7609 29.8191C41.023 30.262 39.99 30.262 39.3997 29.6715C37.7765 28.1953 35.5629 27.3096 32.9067 27.3096C26.2661 27.3096 23.0195 32.6239 23.0195 37.9381C23.0195 43.2524 26.4136 48.5667 32.9067 48.5667C38.0716 48.5667 40.8754 45.762 42.2036 42.2191H34.8251C33.7921 42.2191 32.9067 41.3334 32.9067 40.3V36.9048C32.7591 35.8715 33.6445 34.9858 34.6775 34.9858Z" fill="black"/>
<path d="M72.4562 19.0429H77.326C78.3589 19.0429 79.0968 19.781 79.0968 20.8143V41.9239C79.0968 42.9572 78.3589 43.6953 77.326 43.6953H72.4562C71.7183 43.6953 71.128 43.1048 71.128 42.3667V41.1858C69.6523 42.9572 67.4388 44.1381 64.1923 44.1381C56.5187 44.1381 52.3867 37.6429 52.3867 31.2953C52.3867 24.8 56.5187 18.3048 64.1923 18.3048C67.4388 18.3048 69.6523 19.4858 71.128 21.2572V20.0762C71.128 19.6334 71.7183 19.0429 72.4562 19.0429ZM70.8329 31.4429C70.8329 28.1953 68.4718 26.1286 65.5204 26.1286C62.2739 26.1286 60.2079 28.3429 60.2079 31.4429C60.2079 34.3953 62.1263 36.7572 65.5204 36.7572C68.4718 36.6096 70.8329 34.6905 70.8329 31.4429Z" fill="black"/>
<path d="M106.398 33.8047V47.5333C106.398 48.5667 105.661 49.3048 104.628 49.3048H100.201C99.3151 49.3048 98.4297 48.5667 98.4297 47.5333V36.019C98.4297 33.2143 96.6589 31.7381 94.4453 31.7381C92.0842 31.7381 90.4609 33.2143 90.4609 36.019V47.5333C90.4609 48.5667 89.7231 49.3048 88.6901 49.3048H84.263C83.23 49.3048 82.4922 48.5667 82.4922 47.5333V26.4238C82.4922 25.3905 83.23 24.6524 84.263 24.6524H89.1328C89.8707 24.6524 90.4609 25.2428 90.4609 25.9809V26.8667C91.7891 25.2428 94.0026 24.0619 97.1016 24.0619C103.447 24.0619 106.398 28.9333 106.398 33.8047Z" fill="black"/>
<path d="M129.124 27.6047H133.994C135.027 27.6047 135.765 28.3428 135.765 29.3761V50.0428C135.765 57.1285 130.6 61.9999 121.893 61.9999C117.319 61.9999 113.187 60.5238 110.973 58.1619C110.383 57.5714 110.53 56.538 111.268 56.0952L114.957 53.8809C115.4 53.5857 115.99 53.5857 116.433 54.0285C117.466 54.9142 119.237 55.6523 121.598 55.6523C126.468 55.6523 127.796 52.9952 127.796 49.1571V47.9761C126.468 49.7476 124.254 50.9285 120.86 50.9285C113.334 50.9285 109.055 45.319 109.055 38.8238C109.055 32.3285 113.334 26.719 120.86 26.719C124.254 26.719 126.468 28.0476 127.796 29.9666V28.638C127.796 28.1952 128.386 27.6047 129.124 27.6047ZM127.501 38.9714C127.501 35.7238 125.287 33.6571 122.188 33.6571C118.942 33.6571 116.876 35.8714 116.876 38.9714C116.876 41.9238 118.794 44.2857 122.188 44.2857C125.287 44.2857 127.501 42.219 127.501 38.9714Z" fill="black"/>
<path d="M162.18 19.0429H167.935C169.115 19.0429 170.001 19.9287 170.001 21.1096V46.2048C170.001 47.3858 169.115 48.2715 167.935 48.2715H162.18C161.294 48.2715 160.556 47.5334 160.556 46.6477V45.3191C158.786 47.3858 156.277 48.862 152.293 48.862C143.143 48.862 138.273 41.1858 138.273 33.5096C138.273 25.8334 143.143 18.1572 152.293 18.1572C156.277 18.1572 158.786 19.6334 160.556 21.7001V20.6668C160.556 19.781 161.294 19.0429 162.18 19.0429ZM160.261 33.8048C160.261 29.8191 157.457 27.4572 153.916 27.4572C150.079 27.4572 147.718 30.1144 147.718 33.8048C147.718 37.3477 150.079 40.0048 153.916 40.0048C157.457 40.0048 160.261 37.6429 160.261 33.8048Z" fill="black"/>
<path d="M130.306 22.881C130.306 22.881 127.207 21.4048 122.337 22.881C117.467 24.3572 114.073 22.881 114.073 22.881C113.188 22.881 112.598 22.1429 112.598 21.4048V15.9429C112.598 15.0572 113.336 14.4667 114.073 14.4667C114.073 14.4667 118.205 15.7953 122.19 14.4667C126.174 13.1381 130.306 14.4667 130.306 14.4667C131.191 14.4667 131.782 15.2048 131.782 15.9429V21.4048C131.929 22.2905 131.191 22.881 130.306 22.881Z" fill="#F31454"/>
<path d="M75.9974 56.8334C75.9974 56.8334 72.8984 55.3572 68.0286 56.8334C63.1589 58.3096 59.7648 56.8334 59.7648 56.8334C58.8793 56.8334 58.2891 56.0953 58.2891 55.3572V49.8953C58.2891 49.0096 59.0269 48.4191 59.7648 48.4191C59.7648 48.4191 63.8967 49.7477 67.8811 48.4191C71.8655 47.0905 75.9974 48.4191 75.9974 48.4191C76.8828 48.4191 77.4731 49.1572 77.4731 49.8953V55.3572C77.4731 56.2429 76.8828 56.8334 75.9974 56.8334Z" fill="#FFCE4D"/>
<path d="M51.7982 12.2523C51.7982 12.2523 48.6992 10.7761 43.8294 12.2523C38.9596 13.7285 35.5655 12.2523 35.5655 12.2523C34.6801 12.2523 34.0898 11.5142 34.0898 10.7761V5.31422C34.0898 4.42851 34.8277 3.83803 35.5655 3.83803C35.5655 3.83803 39.6975 5.16661 43.6819 3.83803C47.6662 2.50946 51.7982 3.83803 51.7982 3.83803C52.6836 3.83803 53.2739 4.57613 53.2739 5.31422V10.7761C53.4214 11.5142 52.6836 12.2523 51.7982 12.2523Z" fill="#7487FC"/>
</svg>
